<svg width="373" height="80" viewBox="0 0 373 80" fill="none" xmlns="http://www.w3.org/2000/svg">
<path fill-rule="evenodd" clip-rule="evenodd" d="M100.239 80C100.239 80 106.916 80 106.916 73.3333C106.916 66.6667 100.239 46.6667 73.5311 46.6667C46.823 46.6667 40.146 66.6667 40.146 73.3333C40.146 80 46.823 80 46.823 80H100.239ZM46.9699 73.3333C46.9206 73.3265 46.8716 73.3177 46.823 73.3067C46.8297 71.5467 47.9381 66.44 51.8975 61.84C55.5833 57.5267 62.06 53.3333 73.5311 53.3333C84.9955 53.3333 91.4722 57.5333 95.1646 61.84C99.1241 66.44 100.226 71.5533 100.239 73.3067L100.186 73.32C100.155 73.3252 100.124 73.3297 100.092 73.3333H46.9699ZM73.5311 33.3333C77.0728 33.3333 80.4694 31.9286 82.9738 29.4281C85.4782 26.9276 86.8851 23.5362 86.8851 20C86.8851 16.4638 85.4782 13.0724 82.9738 10.5719C80.4694 8.07142 77.0728 6.66667 73.5311 6.66667C69.9894 6.66667 66.5927 8.07142 64.0883 10.5719C61.584 13.0724 60.177 16.4638 60.177 20C60.177 23.5362 61.584 26.9276 64.0883 29.4281C66.5927 31.9286 69.9894 33.3333 73.5311 33.3333ZM93.5621 20C93.5621 22.6264 93.044 25.2272 92.0374 27.6537C91.0307 30.0802 89.5552 32.285 87.6952 34.1421C85.8351 35.9993 83.6269 37.4725 81.1966 38.4776C78.7663 39.4827 76.1616 40 73.5311 40C70.9006 40 68.2958 39.4827 65.8655 38.4776C63.4352 37.4725 61.227 35.9993 59.367 34.1421C57.5069 32.285 56.0314 30.0802 55.0248 27.6537C54.0181 25.2272 53.5 22.6264 53.5 20C53.5 14.6957 55.6104 9.60859 59.367 5.85786C63.1235 2.10714 68.2185 0 73.5311 0C78.8436 0 83.9386 2.10714 87.6952 5.85786C91.4517 9.60859 93.5621 14.6957 93.5621 20ZM32.9348 53.3333L32.9303 53.3401L32.9348 53.34V53.3333Z" fill="#D7E026"/>
<path fill-rule="evenodd" clip-rule="evenodd" d="M10.0994 23.3333C10.0994 18.029 12.2098 12.9419 15.9664 9.1912C19.7229 5.44047 24.8179 3.33333 30.1304 3.33333C35.443 3.33333 40.538 5.44047 44.2945 9.1912C48.0511 12.9419 50.1615 18.029 50.1615 23.3333C50.1615 28.6377 48.0511 33.7247 44.2945 37.4755C40.538 41.2262 35.443 43.3333 30.1304 43.3333C24.8179 43.3333 19.7229 41.2262 15.9664 37.4755C12.2098 33.7247 10.0994 28.6377 10.0994 23.3333ZM20.6877 13.9052C23.1921 11.4048 26.5887 10 30.1304 10C33.6722 10 37.0688 11.4048 39.5732 13.9052C42.0775 16.4057 43.4845 19.7971 43.4845 23.3333C43.4845 26.8696 42.0775 30.2609 39.5732 32.7614C37.0688 35.2619 33.6722 36.6667 30.1304 36.6667C26.5887 36.6667 23.1921 35.2619 20.6877 32.7614C18.1833 30.2609 16.7764 26.8696 16.7764 23.3333C16.7764 19.7971 18.1833 16.4057 20.6877 13.9052Z" fill="#656565"/>
<path fill-rule="evenodd" clip-rule="evenodd" d="M46.3957 48.5333C43.7247 47.6936 40.9715 47.1416 38.1829 46.8867C36.6161 46.7379 35.0429 46.6645 33.469 46.6667C6.76088 46.6667 0.0838623 66.6667 0.0838623 73.3333C0.0838623 77.78 2.30731 80 6.76088 80H34.9112C33.9214 77.9188 33.4277 75.6369 33.469 73.3333C33.469 66.6 35.9862 59.72 40.7469 53.9733C42.3694 52.0133 44.259 50.18 46.3957 48.5333ZM26.7919 73.3333H6.76088C6.76088 71.6 7.85591 66.4667 11.8354 61.84C15.4739 57.6006 21.7958 53.4678 32.9303 53.3401L32.9348 53.3333V53.34L32.9303 53.3401C28.9814 59.2671 26.8483 66.2148 26.7919 73.3333Z" fill="#656565"/>
<path d="M135.46 15.668H149.22L158.564 48.372C158.991 49.78 159.29 51.1027 159.46 52.34C159.674 53.5347 159.78 54.964 159.78 56.628H160.804C160.804 54.964 160.89 53.5347 161.06 52.34C161.274 51.1027 161.594 49.78 162.02 48.372L171.364 15.668H185.124V64.5H176.996V29.556C176.996 27.2947 177.124 24.884 177.38 22.324L176.356 22.196C175.802 25.3533 175.247 27.8067 174.692 29.556L164.26 64.5H156.324L145.892 29.556C145.338 27.8067 144.783 25.3533 144.228 22.196L143.268 22.324C143.482 24.884 143.588 27.2947 143.588 29.556V64.5H135.46V15.668ZM210.273 65.204C206.774 65.204 203.659 64.4147 200.929 62.836C198.241 61.2147 196.15 59.0173 194.657 56.244C193.163 53.428 192.417 50.2707 192.417 46.772C192.417 43.5293 193.078 40.4787 194.401 37.62C195.766 34.7613 197.771 32.4573 200.417 30.708C203.105 28.9587 206.326 28.084 210.081 28.084C213.238 28.084 216.161 28.7667 218.849 30.132C221.579 31.4547 223.755 33.4813 225.377 36.212C227.041 38.9427 227.873 42.292 227.873 46.26V48.18H204.193C201.974 48.18 200.438 48.116 199.585 47.988L199.329 49.012C199.713 49.0973 199.969 49.268 200.097 49.524C200.267 49.7373 200.438 50.0787 200.609 50.548C200.993 51.444 201.227 51.9773 201.313 52.148C202.166 54.1533 203.382 55.732 204.961 56.884C206.582 58.036 208.417 58.612 210.465 58.612C212.641 58.612 214.497 58.0573 216.033 56.948C217.611 55.796 218.742 54.3667 219.425 52.66H227.233C226.081 56.372 224.075 59.4013 221.217 61.748C218.358 64.052 214.71 65.204 210.273 65.204ZM200.417 43.252C201.057 42.868 201.611 42.612 202.081 42.484C202.593 42.3133 203.19 42.228 203.873 42.228H216.545C217.27 42.228 217.889 42.3133 218.401 42.484C218.955 42.612 219.553 42.868 220.193 43.252L220.833 42.42C220.449 42.2067 220.193 42.0147 220.065 41.844C219.979 41.6307 219.873 41.332 219.745 40.948C219.659 40.3507 219.361 39.6467 218.849 38.836C217.995 37.3427 216.822 36.212 215.329 35.444C213.835 34.6333 212.171 34.228 210.337 34.228C208.459 34.228 206.795 34.6333 205.345 35.444C203.894 36.212 202.721 37.3427 201.825 38.836C201.483 39.3907 201.185 40.0947 200.929 40.948C200.843 41.2893 200.737 41.5667 200.609 41.78C200.481 41.9507 200.225 42.164 199.841 42.42L200.417 43.252ZM234.639 28.724H242.191V30.26C242.191 30.9 242.127 31.4333 241.999 31.86C241.871 32.2867 241.636 32.7347 241.295 33.204L242.191 33.78C243.599 31.732 245.071 30.2813 246.607 29.428C248.185 28.532 250.041 28.084 252.175 28.084C257.551 28.084 261.199 30.0253 263.119 33.908C263.844 35.316 264.292 36.7453 264.463 38.196C264.633 39.6467 264.719 41.4387 264.719 43.572V64.5H257.103V43.572C257.103 41.6947 256.953 40.1587 256.655 38.964C256.399 37.7693 255.951 36.8307 255.311 36.148C254.287 34.996 252.665 34.42 250.447 34.42C247.887 34.42 245.945 35.188 244.623 36.724C243.769 37.7053 243.151 39.0067 242.767 40.628C242.383 42.2493 242.191 44.468 242.191 47.284V64.5H234.639V28.724ZM283.151 64.5C280.378 64.5 278.287 63.86 276.879 62.58C275.471 61.3 274.767 59.188 274.767 56.244V34.996H269.391V28.724H274.767V15.668H282.319V28.724H289.615V34.996H282.319V54.132C282.319 55.4973 282.533 56.5213 282.959 57.204C283.386 57.844 284.325 58.164 285.775 58.164H289.551V64.5H283.151ZM311.648 65.204C308.149 65.204 305.034 64.4147 302.304 62.836C299.616 61.2147 297.525 59.0173 296.032 56.244C294.538 53.428 293.792 50.2707 293.792 46.772C293.792 43.5293 294.453 40.4787 295.776 37.62C297.141 34.7613 299.146 32.4573 301.792 30.708C304.48 28.9587 307.701 28.084 311.456 28.084C314.613 28.084 317.536 28.7667 320.224 30.132C322.954 31.4547 325.13 33.4813 326.752 36.212C328.416 38.9427 329.248 42.292 329.248 46.26V48.18H305.568C303.349 48.18 301.813 48.116 300.96 47.988L300.704 49.012C301.088 49.0973 301.344 49.268 301.472 49.524C301.642 49.7373 301.813 50.0787 301.984 50.548C302.368 51.444 302.602 51.9773 302.688 52.148C303.541 54.1533 304.757 55.732 306.336 56.884C307.957 58.036 309.792 58.612 311.84 58.612C314.016 58.612 315.872 58.0573 317.408 56.948C318.986 55.796 320.117 54.3667 320.8 52.66H328.608C327.456 56.372 325.45 59.4013 322.592 61.748C319.733 64.052 316.085 65.204 311.648 65.204ZM301.792 43.252C302.432 42.868 302.986 42.612 303.456 42.484C303.968 42.3133 304.565 42.228 305.248 42.228H317.92C318.645 42.228 319.264 42.3133 319.776 42.484C320.33 42.612 320.928 42.868 321.568 43.252L322.208 42.42C321.824 42.2067 321.568 42.0147 321.44 41.844C321.354 41.6307 321.248 41.332 321.12 40.948C321.034 40.3507 320.736 39.6467 320.224 38.836C319.37 37.3427 318.197 36.212 316.704 35.444C315.21 34.6333 313.546 34.228 311.712 34.228C309.834 34.228 308.17 34.6333 306.72 35.444C305.269 36.212 304.096 37.3427 303.2 38.836C302.858 39.3907 302.56 40.0947 302.304 40.948C302.218 41.2893 302.112 41.5667 301.984 41.78C301.856 41.9507 301.6 42.164 301.216 42.42L301.792 43.252ZM352.398 65.204C348.899 65.204 345.784 64.4147 343.054 62.836C340.366 61.2147 338.275 59.0173 336.782 56.244C335.288 53.428 334.542 50.2707 334.542 46.772C334.542 43.5293 335.203 40.4787 336.526 37.62C337.891 34.7613 339.896 32.4573 342.542 30.708C345.23 28.9587 348.451 28.084 352.206 28.084C355.363 28.084 358.286 28.7667 360.974 30.132C363.704 31.4547 365.88 33.4813 367.502 36.212C369.166 38.9427 369.998 42.292 369.998 46.26V48.18H346.318C344.099 48.18 342.563 48.116 341.71 47.988L341.454 49.012C341.838 49.0973 342.094 49.268 342.222 49.524C342.392 49.7373 342.563 50.0787 342.734 50.548C343.118 51.444 343.352 51.9773 343.438 52.148C344.291 54.1533 345.507 55.732 347.086 56.884C348.707 58.036 350.542 58.612 352.59 58.612C354.766 58.612 356.622 58.0573 358.158 56.948C359.736 55.796 360.867 54.3667 361.55 52.66H369.358C368.206 56.372 366.2 59.4013 363.342 61.748C360.483 64.052 356.835 65.204 352.398 65.204ZM342.542 43.252C343.182 42.868 343.736 42.612 344.206 42.484C344.718 42.3133 345.315 42.228 345.998 42.228H358.67C359.395 42.228 360.014 42.3133 360.526 42.484C361.08 42.612 361.678 42.868 362.318 43.252L362.958 42.42C362.574 42.2067 362.318 42.0147 362.19 41.844C362.104 41.6307 361.998 41.332 361.87 40.948C361.784 40.3507 361.486 39.6467 360.974 38.836C360.12 37.3427 358.947 36.212 357.454 35.444C355.96 34.6333 354.296 34.228 352.462 34.228C350.584 34.228 348.92 34.6333 347.47 35.444C346.019 36.212 344.846 37.3427 343.95 38.836C343.608 39.3907 343.31 40.0947 343.054 40.948C342.968 41.2893 342.862 41.5667 342.734 41.78C342.606 41.9507 342.35 42.164 341.966 42.42L342.542 43.252Z" fill="black"/>
</svg>
