<svg width="359" height="80" viewBox="0 0 359 80" fill="none" xmlns="http://www.w3.org/2000/svg">
<path fill-rule="evenodd" clip-rule="evenodd" d="M100.739 80C100.739 80 107.416 80 107.416 73.3333C107.416 66.6667 100.739 46.6667 74.0312 46.6667C47.3231 46.6667 40.6461 66.6667 40.6461 73.3333C40.6461 80 47.3231 80 47.3231 80H100.739ZM47.47 73.3333C47.4207 73.3265 47.3717 73.3176 47.3231 73.3067C47.3298 71.5467 48.4382 66.44 52.3977 61.84C56.0834 57.5267 62.5601 53.3333 74.0312 53.3333C85.4956 53.3333 91.9723 57.5333 95.6647 61.84C99.6242 66.44 100.726 71.5533 100.739 73.3067L100.686 73.32C100.655 73.3252 100.624 73.3297 100.592 73.3333H47.47ZM74.0312 33.3333C77.5729 33.3333 80.9696 31.9286 83.4739 29.4281C85.9783 26.9276 87.3852 23.5362 87.3852 20C87.3852 16.4638 85.9783 13.0724 83.4739 10.5719C80.9696 8.07142 77.5729 6.66667 74.0312 6.66667C70.4895 6.66667 67.0928 8.07142 64.5885 10.5719C62.0841 13.0724 60.6772 16.4638 60.6772 20C60.6772 23.5362 62.0841 26.9276 64.5885 29.4281C67.0928 31.9286 70.4895 33.3333 74.0312 33.3333ZM94.0622 20C94.0622 22.6264 93.5441 25.2272 92.5375 27.6537C91.5308 30.0802 90.0553 32.285 88.1953 34.1421C86.3352 35.9993 84.127 37.4725 81.6967 38.4776C79.2665 39.4827 76.6617 40 74.0312 40C71.4007 40 68.7959 39.4827 66.3656 38.4776C63.9354 37.4725 61.7271 35.9993 59.8671 34.1421C58.007 32.285 56.5316 30.0802 55.5249 27.6537C54.5182 25.2272 54.0001 22.6264 54.0001 20C54.0001 14.6957 56.1105 9.60859 59.8671 5.85786C63.6236 2.10714 68.7186 0 74.0312 0C79.3438 0 84.4387 2.10714 88.1953 5.85786C91.9518 9.60859 94.0622 14.6957 94.0622 20ZM33.4349 53.3333L33.4304 53.3401L33.4349 53.34V53.3333Z" fill="#656565"/>
<path fill-rule="evenodd" clip-rule="evenodd" d="M10.5995 23.3333C10.5995 18.029 12.7099 12.9419 16.4665 9.1912C20.223 5.44047 25.318 3.33333 30.6306 3.33333C35.9431 3.33333 41.0381 5.44047 44.7947 9.1912C48.5512 12.9419 50.6616 18.029 50.6616 23.3333C50.6616 28.6377 48.5512 33.7247 44.7947 37.4755C41.0381 41.2262 35.9431 43.3333 30.6306 43.3333C25.318 43.3333 20.223 41.2262 16.4665 37.4755C12.7099 33.7247 10.5995 28.6377 10.5995 23.3333ZM21.1878 13.9052C23.6922 11.4048 27.0889 10 30.6306 10C34.1723 10 37.5689 11.4048 40.0733 13.9052C42.5777 16.4057 43.9846 19.7971 43.9846 23.3333C43.9846 26.8696 42.5777 30.2609 40.0733 32.7614C37.5689 35.2619 34.1723 36.6667 30.6306 36.6667C27.0889 36.6667 23.6922 35.2619 21.1878 32.7614C18.6835 30.2609 17.2765 26.8696 17.2765 23.3333C17.2765 19.7971 18.6835 16.4057 21.1878 13.9052Z" fill="#D7E026"/>
<path fill-rule="evenodd" clip-rule="evenodd" d="M46.8958 48.5333C44.2249 47.6936 41.4716 47.1416 38.6831 46.8867C37.1162 46.7379 35.543 46.6645 33.9691 46.6667C7.261 46.6667 0.583984 66.6667 0.583984 73.3333C0.583984 77.78 2.80743 80 7.261 80H35.4113C34.4215 77.9188 33.9278 75.6369 33.9691 73.3333C33.9691 66.6 36.4863 59.72 41.247 53.9733C42.8695 52.0133 44.7591 50.18 46.8958 48.5333ZM27.2921 73.3333H7.261C7.261 71.6 8.35603 66.4667 12.3355 61.84C15.974 57.6006 22.296 53.4678 33.4304 53.3401L33.4349 53.3333V53.34L33.4304 53.3401C29.4815 59.2671 27.3484 66.2148 27.2921 73.3333Z" fill="#D7E026"/>
<path d="M135.96 15.668H149.72L159.064 48.372C159.491 49.78 159.79 51.1027 159.96 52.34C160.174 53.5347 160.28 54.964 160.28 56.628H161.304C161.304 54.964 161.39 53.5347 161.56 52.34C161.774 51.1027 162.094 49.78 162.52 48.372L171.864 15.668H185.624V64.5H177.496V29.556C177.496 27.2947 177.624 24.884 177.88 22.324L176.856 22.196C176.302 25.3533 175.747 27.8067 175.192 29.556L164.76 64.5H156.824L146.392 29.556C145.838 27.8067 145.283 25.3533 144.728 22.196L143.768 22.324C143.982 24.884 144.088 27.2947 144.088 29.556V64.5H135.96V15.668ZM210.773 65.204C207.274 65.204 204.159 64.4147 201.429 62.836C198.741 61.2147 196.65 59.0173 195.157 56.244C193.663 53.428 192.917 50.2707 192.917 46.772C192.917 43.5293 193.578 40.4787 194.901 37.62C196.266 34.7613 198.271 32.4573 200.917 30.708C203.605 28.9587 206.826 28.084 210.581 28.084C213.738 28.084 216.661 28.7667 219.349 30.132C222.079 31.4547 224.255 33.4813 225.877 36.212C227.541 38.9427 228.373 42.292 228.373 46.26V48.18H204.693C202.474 48.18 200.938 48.116 200.085 47.988L199.829 49.012C200.213 49.0973 200.469 49.268 200.597 49.524C200.767 49.7373 200.938 50.0787 201.109 50.548C201.493 51.444 201.727 51.9773 201.813 52.148C202.666 54.1533 203.882 55.732 205.461 56.884C207.082 58.036 208.917 58.612 210.965 58.612C213.141 58.612 214.997 58.0573 216.533 56.948C218.111 55.796 219.242 54.3667 219.925 52.66H227.733C226.581 56.372 224.575 59.4013 221.717 61.748C218.858 64.052 215.21 65.204 210.773 65.204ZM200.917 43.252C201.557 42.868 202.111 42.612 202.581 42.484C203.093 42.3133 203.69 42.228 204.373 42.228H217.045C217.77 42.228 218.389 42.3133 218.901 42.484C219.455 42.612 220.053 42.868 220.693 43.252L221.333 42.42C220.949 42.2067 220.693 42.0147 220.565 41.844C220.479 41.6307 220.373 41.332 220.245 40.948C220.159 40.3507 219.861 39.6467 219.349 38.836C218.495 37.3427 217.322 36.212 215.829 35.444C214.335 34.6333 212.671 34.228 210.837 34.228C208.959 34.228 207.295 34.6333 205.845 35.444C204.394 36.212 203.221 37.3427 202.325 38.836C201.983 39.3907 201.685 40.0947 201.429 40.948C201.343 41.2893 201.237 41.5667 201.109 41.78C200.981 41.9507 200.725 42.164 200.341 42.42L200.917 43.252ZM235.139 28.724H242.691V30.26C242.691 30.9 242.627 31.4333 242.499 31.86C242.371 32.2867 242.136 32.7347 241.795 33.204L242.691 33.78C244.099 31.732 245.571 30.2813 247.107 29.428C248.685 28.532 250.541 28.084 252.675 28.084C258.051 28.084 261.699 30.0253 263.619 33.908C264.344 35.316 264.792 36.7453 264.963 38.196C265.133 39.6467 265.219 41.4387 265.219 43.572V64.5H257.603V43.572C257.603 41.6947 257.453 40.1587 257.155 38.964C256.899 37.7693 256.451 36.8307 255.811 36.148C254.787 34.996 253.165 34.42 250.947 34.42C248.387 34.42 246.445 35.188 245.123 36.724C244.269 37.7053 243.651 39.0067 243.267 40.628C242.883 42.2493 242.691 44.468 242.691 47.284V64.5H235.139V28.724ZM283.651 64.5C280.878 64.5 278.787 63.86 277.379 62.58C275.971 61.3 275.267 59.188 275.267 56.244V34.996H269.891V28.724H275.267V15.668H282.819V28.724H290.115V34.996H282.819V54.132C282.819 55.4973 283.033 56.5213 283.459 57.204C283.886 57.844 284.825 58.164 286.275 58.164H290.051V64.5H283.651ZM312.276 65.204C308.777 65.204 305.662 64.4147 302.932 62.836C300.201 61.2573 298.068 59.06 296.532 56.244C295.038 53.3853 294.292 50.1213 294.292 46.452C294.292 42.9107 295.038 39.7533 296.532 36.98C298.068 34.164 300.201 31.988 302.932 30.452C305.662 28.8733 308.777 28.084 312.276 28.084C315.774 28.084 318.889 28.8733 321.62 30.452C324.35 31.988 326.484 34.164 328.02 36.98C329.556 39.7533 330.324 42.9107 330.324 46.452C330.324 50.0787 329.556 53.3213 328.02 56.18C326.526 58.996 324.414 61.2147 321.684 62.836C318.953 64.4147 315.817 65.204 312.276 65.204ZM312.276 58.612C314.238 58.612 316.009 58.1 317.588 57.076C319.166 56.0093 320.382 54.5587 321.236 52.724C322.132 50.8893 322.58 48.7987 322.58 46.452C322.58 44.2333 322.132 42.228 321.236 40.436C320.382 38.6013 319.166 37.172 317.588 36.148C316.009 35.124 314.238 34.612 312.276 34.612C310.313 34.612 308.542 35.124 306.964 36.148C305.385 37.1293 304.148 38.5373 303.252 40.372C302.398 42.164 301.972 44.1907 301.972 46.452C301.972 48.8413 302.42 50.9533 303.316 52.788C304.212 54.6227 305.428 56.052 306.964 57.076C308.542 58.1 310.313 58.612 312.276 58.612ZM337.201 28.724H344.753V30.26C344.753 30.9 344.689 31.4333 344.561 31.86C344.433 32.2867 344.199 32.7347 343.857 33.204L344.753 33.78C346.076 31.732 347.569 30.2813 349.233 29.428C350.897 28.532 352.945 28.084 355.377 28.084H356.209V35.444H354.289C351.431 35.444 349.233 36.212 347.697 37.748C345.735 39.5827 344.753 42.74 344.753 47.22V64.5H337.201V28.724Z" fill="black"/>
</svg>
